<svg width="33" height="26" viewBox="0 0 33 26" fill="none" xmlns="http://www.w3.org/2000/svg">
<path d="M33 3.08073C31.7832 3.60208 30.4825 3.95417 29.1119 4.11667C30.5105 3.30417 31.5874 2.01771 32.0909 0.4875C30.7832 1.23906 29.3357 1.7875 27.7902 2.07865C26.5524 0.798958 24.7902 0 22.8462 0C19.1049 0 16.0769 2.93854 16.0769 6.56094C16.0769 7.07552 16.1329 7.57656 16.2517 8.05729C10.6224 7.78646 5.62937 5.17292 2.29371 1.19844C1.71329 2.16667 1.37762 3.2974 1.37762 4.49583C1.37762 6.77083 2.57343 8.78177 4.39161 9.9599C3.27972 9.93281 2.23077 9.6349 1.32168 9.14062C1.32168 9.16771 1.32168 9.19479 1.32168 9.22188C1.32168 12.4042 3.65734 15.0516 6.75524 15.6542C6.18881 15.8031 5.58741 15.8844 4.97203 15.8844C4.53846 15.8844 4.11189 15.8438 3.6993 15.7625C4.55944 18.3693 7.06294 20.2651 10.028 20.3193C7.71329 22.0797 4.79021 23.1292 1.61538 23.1292C1.06993 23.1292 0.531469 23.0953 0 23.0344C2.99301 24.9167 6.55245 26 10.3706 26C22.8322 26 29.6434 15.9995 29.6434 7.32604C29.6434 7.04167 29.6364 6.75729 29.6224 6.47969C30.9441 5.55208 32.0909 4.39427 33 3.08073Z" fill="white"/>
</svg>
